<?xml version="1.0" encoding="UTF-8"?>
<svg id="Layer_1" data-name="Layer 1" xmlns="http://www.w3.org/2000/svg" viewBox="0 0 1024 1024">
  <defs>
    <style>
      .cls-1 {
        fill: #fff;
      }
    </style>
  </defs>
  <g>
    <g>
      <path class="cls-1" d="M265.89,744.07l.27-120.42c.06-24.99,23.75-49.14,50.17-50.89-27.01-2.31-48.81-23.95-50.42-51.47l-.02-119.8h110.03s-.02,235.73-.02,235.73c-.51,28.7-11.95,54.95-32.48,74.62-20.19,20.83-47.4,32.52-77.53,32.22Z"/>
      <circle class="cls-1" cx="320.89" cy="334.9" r="54.98"/>
    </g>
    <g>
      <path class="cls-1" d="M253.27,624.61l.18,119.45c-29.5.38-57.15-11.13-77.56-32.22-20.42-19.68-32.33-45.9-32.37-74.52l-.1-63.81,64.06.3c11.5.05,21.08,7.25,29.38,14.36,9.45,9.89,16.4,21.75,16.42,36.44Z"/>
      <circle class="cls-1" cx="198.42" cy="509.98" r="54.97"/>
    </g>
  </g>
  <g>
    <path class="cls-1" d="M439.14,511.88c-5.71-2.72-9.85-5.79-12.41-9.21l14.41-15.53c1.6,1.71,3.92,3.26,6.97,4.64,3.04,1.39,6.21,2.08,9.52,2.08,4.8,0,8.62-1.47,11.45-4.4,2.83-2.93,4.24-7.07,4.24-12.41v-75.57h24.01v75.57c0,7.68-1.63,14.46-4.88,20.33-3.26,5.87-7.82,10.43-13.69,13.69-5.87,3.25-12.65,4.88-20.33,4.88-7.15,0-13.58-1.36-19.29-4.08Z"/>
    <path class="cls-1" d="M528.31,509.72c-6.35-3.63-11.37-8.54-15.05-14.73-3.68-6.19-5.52-12.97-5.52-20.33s1.81-14.14,5.44-20.33c3.63-6.19,8.54-11.07,14.73-14.65,6.19-3.57,12.97-5.36,20.33-5.36s14.03,1.71,20.01,5.12c5.97,3.42,10.67,8.06,14.09,13.93,3.42,5.87,5.13,12.43,5.13,19.69,0,2.99-.27,5.82-.8,8.48h-56.51c.64,4.06,2.91,7.6,6.8,10.65,3.9,3.04,8.57,4.56,14.01,4.56,7.47,0,14.19-2.67,20.17-8l11.37,13.61c-3.2,3.42-7.74,6.4-13.61,8.97-5.87,2.56-12.38,3.84-19.53,3.84-7.68,0-14.7-1.81-21.05-5.44ZM565.53,466.65c-.96-4.27-2.96-7.74-6-10.41-3.04-2.67-6.8-4-11.29-4s-8.59,1.34-11.69,4c-3.1,2.67-5.28,6.14-6.56,10.41h35.54Z"/>
    <path class="cls-1" d="M594.67,513.56v-77.65h21.61v11.05h.48c1.92-3.2,4.94-6.11,9.05-8.73,4.11-2.61,8.83-3.92,14.17-3.92,5.66,0,10.67,1.34,15.05,4,4.38,2.67,7.82,6.49,10.33,11.45,2.51,4.96,3.76,10.86,3.76,17.69v46.11h-21.61v-43.23c0-4.8-1.34-8.62-4-11.45-2.67-2.83-6.14-4.24-10.41-4.24-4.91,0-8.94,1.68-12.09,5.04-3.15,3.36-4.72,7.71-4.72,13.05v40.82h-21.61Z"/>
    <path class="cls-1" d="M681.12,513.56v-77.65h21.61v11.05h.48c1.92-3.2,4.94-6.11,9.05-8.73,4.11-2.61,8.83-3.92,14.17-3.92,5.66,0,10.67,1.34,15.05,4,4.38,2.67,7.82,6.49,10.33,11.45,2.51,4.96,3.76,10.86,3.76,17.69v46.11h-21.61v-43.23c0-4.8-1.34-8.62-4-11.45-2.67-2.83-6.14-4.24-10.41-4.24-4.91,0-8.94,1.68-12.09,5.04-3.15,3.36-4.72,7.71-4.72,13.05v40.82h-21.61Z"/>
    <path class="cls-1" d="M817.04,435.91h22.25l-30.1,84.05c-3.31,9.39-7.42,16.27-12.33,20.65-4.91,4.38-11.05,6.56-18.41,6.56-2.56,0-5.04-.24-7.44-.72s-4.35-1.04-5.84-1.68v-20.01c1.07.53,2.4,1.04,4,1.52,1.6.48,3.2.72,4.8.72,3.31,0,6.06-.8,8.24-2.4,2.19-1.6,3.87-3.68,5.04-6.24l2.4-5.28-33.3-77.17h23.53l20.49,51.39h.48l16.17-51.39Z"/>
  </g>
  <g>
    <path class="cls-1" d="M450.75,648.52h-24.01v-112.07h21.93l38.26,48.67h.32l38.26-48.67h21.29v112.07h-24.01v-73.8h-.64l-35.38,44.99-35.38-44.99h-.64v73.8Z"/>
    <path class="cls-1" d="M579.38,644.68c-6.35-3.63-11.37-8.54-15.05-14.73-3.68-6.19-5.52-12.97-5.52-20.33s1.84-14.14,5.52-20.33c3.68-6.19,8.7-11.07,15.05-14.65,6.35-3.57,13.37-5.36,21.05-5.36s14.27,1.58,20.09,4.72c5.82,3.15,10.27,6.8,13.37,10.96l-14.09,12.97c-5.12-5.76-11.31-8.65-18.57-8.65-5.76,0-10.59,1.95-14.49,5.84-3.9,3.9-5.84,8.72-5.84,14.49s1.95,10.75,5.84,14.65c3.89,3.9,8.72,5.84,14.49,5.84,7.26,0,13.66-2.99,19.21-8.96l14.09,12.97c-3.42,4.27-8.06,8-13.93,11.21-5.87,3.2-12.59,4.8-20.17,4.8s-14.7-1.81-21.05-5.44Z"/>
    <path class="cls-1" d="M639.82,648.52v-77.65h21.61v9.6h.48c1.92-2.88,4.83-5.47,8.73-7.77,3.9-2.29,8.3-3.44,13.21-3.44h3.68v23.21c-2.56-.85-4.96-1.28-7.2-1.28-5.55,0-10.09,1.9-13.61,5.69-3.52,3.79-5.28,8.83-5.28,15.13v36.5h-21.61Z"/>
    <path class="cls-1" d="M695.93,555.75c-2.4-2.3-3.6-5.15-3.6-8.57s1.23-6.13,3.68-8.48c2.45-2.35,5.39-3.52,8.8-3.52s6.32,1.18,8.72,3.52c2.4,2.35,3.6,5.18,3.6,8.48s-1.2,6.27-3.6,8.57c-2.4,2.3-5.31,3.44-8.72,3.44s-6.49-1.14-8.89-3.44ZM715.54,648.52h-21.61v-77.65h21.61v77.65Z"/>
    <path class="cls-1" d="M744.91,644.68c-6.35-3.63-11.37-8.54-15.05-14.73-3.68-6.19-5.52-12.97-5.52-20.33s1.84-14.14,5.52-20.33c3.68-6.19,8.7-11.07,15.05-14.65,6.35-3.57,13.37-5.36,21.05-5.36s14.27,1.58,20.09,4.72c5.82,3.15,10.27,6.8,13.37,10.96l-14.09,12.97c-5.12-5.76-11.31-8.65-18.57-8.65-5.76,0-10.59,1.95-14.49,5.84-3.9,3.9-5.84,8.72-5.84,14.49s1.95,10.75,5.84,14.65c3.89,3.9,8.72,5.84,14.49,5.84,7.26,0,13.66-2.99,19.21-8.96l14.09,12.97c-3.42,4.27-8.06,8-13.93,11.21-5.87,3.2-12.59,4.8-20.17,4.8s-14.7-1.81-21.05-5.44Z"/>
    <path class="cls-1" d="M806.15,648.52v-112.07h21.61v45.47h.48c1.92-3.2,4.94-6.11,9.04-8.73,4.11-2.61,8.83-3.92,14.17-3.92,5.66,0,10.67,1.34,15.05,4,4.38,2.67,7.82,6.49,10.33,11.45,2.5,4.96,3.76,10.86,3.76,17.69v46.11h-21.61v-43.23c0-4.8-1.34-8.62-4-11.45-2.67-2.83-6.14-4.24-10.41-4.24-4.91,0-8.94,1.68-12.09,5.04-3.15,3.36-4.72,7.71-4.72,13.05v40.82h-21.61Z"/>
  </g>
  <g>
    <path class="cls-1" d="M452.85,707.34h-5.04l-7.51-13.34h-9.14v13.34h-4.45v-34.58h13.93c2.14,0,4.05.46,5.73,1.38,1.68.92,3,2.2,3.95,3.83.95,1.63,1.43,3.43,1.43,5.41,0,2.27-.63,4.31-1.88,6.1s-2.93,3.07-5.04,3.83l8,14.03ZM431.16,676.86v13.05h9.49c1.98,0,3.58-.61,4.82-1.83,1.24-1.22,1.85-2.78,1.85-4.7s-.62-3.47-1.85-4.69c-1.23-1.22-2.84-1.83-4.82-1.83h-9.49Z"/>
    <path class="cls-1" d="M495.09,707.34h-24.55v-34.58h24.06v4.1h-19.62v10.47h15.66v4.1h-15.66v11.81h20.11v4.1Z"/>
    <path class="cls-1" d="M518.29,705.47c-2.75-1.58-4.93-3.73-6.52-6.45-1.6-2.72-2.4-5.71-2.4-8.97s.8-6.25,2.4-8.97c1.59-2.72,3.77-4.86,6.52-6.45,2.75-1.58,5.79-2.37,9.11-2.37,3.13,0,5.91.68,8.35,2.03,2.44,1.35,4.35,2.95,5.73,4.79l-3.16,2.52c-1.19-1.45-2.68-2.68-4.47-3.7-1.8-1.02-3.95-1.53-6.45-1.53s-4.79.61-6.87,1.83c-2.07,1.22-3.71,2.87-4.92,4.97-1.2,2.09-1.8,4.39-1.8,6.89s.6,4.8,1.8,6.89c1.2,2.09,2.84,3.75,4.92,4.96,2.07,1.22,4.36,1.83,6.87,1.83s4.73-.53,6.57-1.58c1.84-1.05,3.37-2.34,4.59-3.85l3.16,2.57c-1.45,1.88-3.41,3.51-5.88,4.89-2.47,1.38-5.29,2.07-8.45,2.07-3.33,0-6.37-.79-9.11-2.37Z"/>
    <path class="cls-1" d="M584.47,707.34h-5.04l-7.51-13.34h-9.14v13.34h-4.45v-34.58h13.93c2.14,0,4.05.46,5.73,1.38,1.68.92,3,2.2,3.95,3.83.95,1.63,1.43,3.43,1.43,5.41,0,2.27-.63,4.31-1.88,6.1s-2.93,3.07-5.04,3.83l8,14.03ZM562.78,676.86v13.05h9.49c1.98,0,3.58-.61,4.82-1.83,1.24-1.22,1.85-2.78,1.85-4.7s-.62-3.47-1.85-4.69c-1.23-1.22-2.84-1.83-4.82-1.83h-9.49Z"/>
    <path class="cls-1" d="M608.58,706.01c-2.17-1.22-3.87-2.9-5.09-5.04-1.22-2.14-1.83-4.58-1.83-7.31v-20.9h4.45v20.9c0,1.95.43,3.68,1.28,5.21.86,1.53,2.03,2.73,3.53,3.58,1.5.86,3.17,1.28,5.01,1.28s3.42-.44,4.92-1.33,2.68-2.1,3.56-3.63,1.31-3.24,1.31-5.11v-20.9h4.44v20.9c0,2.7-.61,5.13-1.83,7.29-1.22,2.16-2.91,3.85-5.06,5.06-2.16,1.22-4.6,1.83-7.34,1.83s-5.19-.61-7.36-1.83Z"/>
    <path class="cls-1" d="M654.17,707.34h-4.45v-34.58h4.45v34.58Z"/>
    <path class="cls-1" d="M685.4,707.34h-4.45v-30.48h-10.67v-4.1h25.84v4.1h-10.72v30.48Z"/>
    <path class="cls-1" d="M716.62,707.34h-4.45v-34.58h4.05l13.73,17.98h.1l13.78-17.98h3.91v34.58h-4.45v-26.83h-.15l-13.19,17.19-13.14-17.19h-.2v26.83Z"/>
    <path class="cls-1" d="M792.41,707.34h-24.55v-34.58h24.06v4.1h-19.62v10.47h15.66v4.1h-15.66v11.81h20.11v4.1Z"/>
    <path class="cls-1" d="M814.39,707.34h-4.45v-34.58h3.95l20.21,26.78h.15v-26.78h4.45v34.58h-3.95l-20.2-26.78h-.15v26.78Z"/>
    <path class="cls-1" d="M869.88,707.34h-4.45v-30.48h-10.67v-4.1h25.84v4.1h-10.72v30.48Z"/>
  </g>
</svg>