<?xml version="1.0" encoding="UTF-8"?>
<svg id="Layer_1" data-name="Layer 1" xmlns="http://www.w3.org/2000/svg" viewBox="0 0 1024 1024">
  <defs>
    <style>
      .cls-1 {
        fill: #fff;
      }
    </style>
  </defs>
  <g>
    <g>
      <path class="cls-1" d="M523.17,685.44l.33-150.75c.07-31.29,29.73-61.53,62.81-63.71-33.81-2.9-61.11-29.99-63.13-64.43l-.02-149.99h137.75s-.02,295.12-.02,295.12c-.64,35.93-14.96,68.79-40.66,93.42-25.27,26.07-59.34,40.71-97.06,40.34Z"/>
      <circle class="cls-1" cx="592.04" cy="173.19" r="68.83"/>
    </g>
    <g>
      <path class="cls-1" d="M507.37,535.88l.22,149.55c-36.93.48-71.54-13.93-97.1-40.34-25.57-24.64-40.47-57.46-40.53-93.3l-.13-79.89,80.2.38c14.39.07,26.39,9.07,36.79,17.98,11.83,12.38,20.53,27.23,20.55,45.62Z"/>
      <circle class="cls-1" cx="438.71" cy="392.37" r="68.82"/>
    </g>
  </g>
  <g>
    <g>
      <path class="cls-1" d="M157.79,842.03c-4.67-2.23-8.06-4.74-10.15-7.53l11.79-12.71c1.31,1.4,3.21,2.67,5.7,3.8,2.49,1.14,5.08,1.7,7.79,1.7,3.93,0,7.05-1.2,9.37-3.6,2.31-2.4,3.47-5.78,3.47-10.15v-61.83h19.65v61.83c0,6.29-1.33,11.83-3.99,16.64-2.67,4.8-6.4,8.54-11.2,11.2s-10.35,4-16.63,4c-5.85,0-11.11-1.12-15.79-3.34Z"/>
      <path class="cls-1" d="M230.75,840.26c-5.2-2.97-9.3-6.98-12.31-12.05-3.01-5.06-4.52-10.61-4.52-16.64s1.48-11.57,4.45-16.64c2.97-5.06,6.99-9.06,12.05-11.99,5.06-2.92,10.61-4.39,16.64-4.39s11.48,1.4,16.37,4.19c4.89,2.8,8.73,6.59,11.53,11.4,2.8,4.8,4.19,10.17,4.19,16.11,0,2.45-.22,4.76-.66,6.94h-46.24c.52,3.32,2.38,6.22,5.57,8.71,3.19,2.49,7.01,3.73,11.46,3.73,6.11,0,11.61-2.18,16.51-6.55l9.3,11.13c-2.62,2.8-6.33,5.24-11.14,7.34s-10.13,3.14-15.98,3.14c-6.29,0-12.03-1.48-17.23-4.45ZM261.21,805.03c-.78-3.49-2.42-6.33-4.91-8.52-2.49-2.18-5.57-3.27-9.23-3.27s-7.03,1.09-9.56,3.27c-2.54,2.19-4.32,5.02-5.37,8.52h29.08Z"/>
      <path class="cls-1" d="M285.05,843.41v-63.53h17.68v9.04h.39c1.57-2.62,4.04-5,7.4-7.14,3.36-2.14,7.22-3.21,11.59-3.21,4.63,0,8.73,1.09,12.31,3.27,3.58,2.19,6.4,5.31,8.45,9.37,2.05,4.06,3.08,8.89,3.08,14.47v37.73h-17.68v-35.37c0-3.93-1.09-7.05-3.27-9.37-2.19-2.31-5.02-3.47-8.52-3.47-4.02,0-7.32,1.38-9.89,4.13-2.58,2.75-3.86,6.31-3.86,10.68v33.4h-17.68Z"/>
      <path class="cls-1" d="M355.79,843.41v-63.53h17.68v9.04h.39c1.57-2.62,4.04-5,7.4-7.14,3.36-2.14,7.22-3.21,11.59-3.21,4.63,0,8.73,1.09,12.31,3.27,3.58,2.19,6.4,5.31,8.45,9.37,2.05,4.06,3.08,8.89,3.08,14.47v37.73h-17.68v-35.37c0-3.93-1.09-7.05-3.27-9.37-2.19-2.31-5.02-3.47-8.52-3.47-4.02,0-7.32,1.38-9.89,4.13-2.58,2.75-3.86,6.31-3.86,10.68v33.4h-17.68Z"/>
      <path class="cls-1" d="M467,779.88h18.21l-24.63,68.77c-2.71,7.68-6.07,13.31-10.08,16.9-4.02,3.58-9.04,5.37-15.07,5.37-2.1,0-4.13-.2-6.09-.59s-3.56-.85-4.78-1.38v-16.37c.87.43,1.97.85,3.27,1.24,1.31.39,2.62.59,3.93.59,2.71,0,4.95-.65,6.75-1.97,1.79-1.31,3.16-3.01,4.13-5.11l1.97-4.32-27.25-63.14h19.26l16.77,42.05h.39l13.23-42.05Z"/>
      <path class="cls-1" d="M531.4,843.41h-19.65v-91.7h17.95l31.31,39.82h.26l31.31-39.82h17.42v91.7h-19.65v-60.39h-.52l-28.95,36.81-28.95-36.81h-.52v60.39Z"/>
      <path class="cls-1" d="M636.65,840.26c-5.2-2.97-9.3-6.98-12.31-12.05-3.01-5.06-4.52-10.61-4.52-16.64s1.51-11.57,4.52-16.64c3.01-5.06,7.12-9.06,12.31-11.99,5.2-2.92,10.94-4.39,17.23-4.39s11.68,1.29,16.44,3.87c4.76,2.58,8.4,5.57,10.94,8.97l-11.53,10.61c-4.19-4.72-9.26-7.07-15.2-7.07-4.72,0-8.67,1.59-11.85,4.78-3.19,3.19-4.78,7.14-4.78,11.85s1.59,8.8,4.78,11.99c3.19,3.19,7.14,4.78,11.85,4.78,5.94,0,11.18-2.44,15.72-7.33l11.53,10.61c-2.8,3.49-6.6,6.55-11.4,9.17-4.8,2.62-10.3,3.93-16.5,3.93s-12.03-1.48-17.23-4.45Z"/>
      <path class="cls-1" d="M686.1,843.41v-63.53h17.68v7.86h.39c1.57-2.36,3.95-4.48,7.14-6.35,3.19-1.88,6.79-2.82,10.81-2.82h3.01v18.99c-2.1-.7-4.06-1.05-5.9-1.05-4.54,0-8.25,1.55-11.13,4.65-2.88,3.1-4.32,7.23-4.32,12.38v29.87h-17.68Z"/>
      <path class="cls-1" d="M732.01,767.5c-1.97-1.88-2.95-4.21-2.95-7.01s1-5.02,3.01-6.94c2.01-1.92,4.41-2.88,7.2-2.88s5.17.96,7.14,2.88c1.97,1.92,2.95,4.24,2.95,6.94s-.98,5.13-2.95,7.01c-1.96,1.88-4.35,2.81-7.14,2.81s-5.31-.94-7.27-2.81ZM748.06,843.41h-17.68v-63.53h17.68v63.53Z"/>
      <path class="cls-1" d="M772.09,840.26c-5.2-2.97-9.3-6.98-12.31-12.05-3.01-5.06-4.52-10.61-4.52-16.64s1.51-11.57,4.52-16.64c3.01-5.06,7.12-9.06,12.31-11.99,5.2-2.92,10.94-4.39,17.23-4.39s11.68,1.29,16.44,3.87c4.76,2.58,8.4,5.57,10.94,8.97l-11.53,10.61c-4.19-4.72-9.26-7.07-15.2-7.07-4.72,0-8.67,1.59-11.85,4.78-3.19,3.19-4.78,7.14-4.78,11.85s1.59,8.8,4.78,11.99c3.19,3.19,7.14,4.78,11.85,4.78,5.94,0,11.18-2.44,15.72-7.33l11.53,10.61c-2.8,3.49-6.6,6.55-11.4,9.17-4.8,2.62-10.3,3.93-16.5,3.93s-12.03-1.48-17.23-4.45Z"/>
      <path class="cls-1" d="M822.2,843.41v-91.7h17.68v37.2h.39c1.57-2.62,4.04-5,7.4-7.14,3.36-2.14,7.23-3.21,11.59-3.21,4.63,0,8.73,1.09,12.31,3.27,3.58,2.19,6.4,5.31,8.45,9.37,2.05,4.06,3.08,8.89,3.08,14.47v37.73h-17.68v-35.37c0-3.93-1.09-7.05-3.27-9.37-2.18-2.31-5.02-3.47-8.52-3.47-4.02,0-7.32,1.38-9.89,4.13-2.58,2.75-3.87,6.31-3.87,10.68v33.4h-17.68Z"/>
    </g>
    <g>
      <path class="cls-1" d="M351.61,919.24h-4.01l-5.97-10.61h-7.27v10.61h-3.54v-27.51h11.08c1.7,0,3.22.37,4.56,1.1,1.34.73,2.38,1.75,3.14,3.04.76,1.3,1.14,2.73,1.14,4.3,0,1.81-.5,3.43-1.49,4.85s-2.33,2.44-4.01,3.04l6.37,11.16ZM334.35,895v10.38h7.55c1.57,0,2.85-.49,3.83-1.45.98-.97,1.48-2.22,1.48-3.74s-.49-2.76-1.48-3.73c-.98-.97-2.26-1.45-3.83-1.45h-7.55Z"/>
      <path class="cls-1" d="M385.21,919.24h-19.53v-27.51h19.14v3.26h-15.6v8.33h12.46v3.26h-12.46v9.39h15.99v3.26Z"/>
      <path class="cls-1" d="M403.66,917.75c-2.19-1.26-3.92-2.97-5.19-5.13-1.27-2.16-1.91-4.54-1.91-7.13s.63-4.97,1.91-7.13c1.27-2.16,3-3.87,5.19-5.13,2.19-1.26,4.6-1.89,7.25-1.89,2.49,0,4.7.54,6.64,1.61,1.94,1.07,3.46,2.35,4.56,3.81l-2.51,2c-.94-1.15-2.13-2.13-3.56-2.95-1.43-.81-3.14-1.22-5.13-1.22s-3.81.49-5.46,1.45c-1.65.97-2.95,2.29-3.91,3.95-.96,1.66-1.43,3.49-1.43,5.48s.48,3.82,1.43,5.48c.96,1.67,2.26,2.98,3.91,3.95,1.65.97,3.47,1.45,5.46,1.45s3.76-.42,5.23-1.26c1.47-.84,2.68-1.86,3.65-3.07l2.52,2.04c-1.15,1.49-2.71,2.79-4.68,3.89-1.96,1.1-4.2,1.65-6.72,1.65-2.65,0-5.06-.63-7.25-1.88Z"/>
      <path class="cls-1" d="M456.3,919.24h-4.01l-5.97-10.61h-7.27v10.61h-3.54v-27.51h11.08c1.7,0,3.22.37,4.56,1.1,1.34.73,2.38,1.75,3.14,3.04.76,1.3,1.14,2.73,1.14,4.3,0,1.81-.5,3.43-1.49,4.85s-2.33,2.44-4.01,3.04l6.37,11.16ZM439.04,895v10.38h7.55c1.57,0,2.85-.49,3.83-1.45.98-.97,1.48-2.22,1.48-3.74s-.49-2.76-1.48-3.73c-.98-.97-2.26-1.45-3.83-1.45h-7.55Z"/>
      <path class="cls-1" d="M475.48,918.18c-1.73-.97-3.08-2.3-4.05-4.01-.97-1.7-1.45-3.64-1.45-5.82v-16.62h3.54v16.62c0,1.55.34,2.93,1.02,4.15.68,1.22,1.62,2.17,2.81,2.85,1.19.68,2.52,1.02,3.99,1.02s2.72-.35,3.91-1.06,2.13-1.67,2.83-2.89,1.04-2.57,1.04-4.07v-16.62h3.53v16.62c0,2.15-.48,4.08-1.45,5.8-.97,1.72-2.31,3.06-4.03,4.03-1.72.97-3.66,1.45-5.84,1.45s-4.13-.48-5.85-1.45Z"/>
      <path class="cls-1" d="M511.75,919.24h-3.54v-27.51h3.54v27.51Z"/>
      <path class="cls-1" d="M536.58,919.24h-3.54v-24.25h-8.49v-3.26h20.55v3.26h-8.53v24.25Z"/>
      <path class="cls-1" d="M561.42,919.24h-3.54v-27.51h3.22l10.92,14.3h.08l10.96-14.3h3.11v27.51h-3.54v-21.34h-.12l-10.49,13.68-10.45-13.68h-.16v21.34Z"/>
      <path class="cls-1" d="M621.7,919.24h-19.53v-27.51h19.14v3.26h-15.6v8.33h12.46v3.26h-12.46v9.39h15.99v3.26Z"/>
      <path class="cls-1" d="M639.19,919.24h-3.54v-27.51h3.14l16.07,21.3h.12v-21.3h3.54v27.51h-3.14l-16.07-21.3h-.12v21.3Z"/>
      <path class="cls-1" d="M683.32,919.24h-3.54v-24.25h-8.49v-3.26h20.55v3.26h-8.53v24.25Z"/>
    </g>
  </g>
</svg>