<svg xmlns="http://www.w3.org/2000/svg" viewBox="172 172 680 680">
  <path fill="#0c182c" d="M520.38,811.63l.34-155.66c.07-32.3,30.7-63.53,64.85-65.78-34.91-2.99-63.1-30.96-65.18-66.53l-.02-154.86h142.23s-.02,304.71-.02,304.71c-.66,37.1-15.45,71.03-41.98,96.46-26.1,26.92-61.27,42.04-100.22,41.65Z"/>
  <circle fill="#0c182c" cx="591.49" cy="282.72" r="71.07"/>
  <path fill="#038f61" d="M504.07,657.21l.23,154.41c-38.13.5-73.87-14.38-100.26-41.65-26.4-25.44-41.79-59.33-41.85-96.33l-.13-82.48,82.81.39c14.86.07,27.25,9.37,37.98,18.57,12.22,12.78,21.19,28.12,21.22,47.1Z"/>
  <circle fill="#038f61" cx="433.18" cy="509.04" r="71.06"/>
</svg>
